<?xml version="1.0" standalone="no"?><!DOCTYPE svg PUBLIC "-//W3C//DTD SVG 1.1//EN" "http://www.w3.org/Graphics/SVG/1.1/DTD/svg11.dtd"><svg t="1553095255629" class="icon" style="" viewBox="0 0 1024 1024" version="1.1" xmlns="http://www.w3.org/2000/svg" p-id="3969" xmlns:xlink="http://www.w3.org/1999/xlink" width="200" height="200"><defs><style type="text/css"></style></defs><path d="M85.333333 171.434667V852.48A86.186667 86.186667 0 0 0 171.434667 938.666667H852.48A86.186667 86.186667 0 0 0 938.666667 852.565333V171.52A86.186667 86.186667 0 0 0 852.565333 85.333333H171.52A86.186667 86.186667 0 0 0 85.333333 171.434667z m-85.333333 0A171.52 171.52 0 0 1 171.434667 0H852.48A171.52 171.52 0 0 1 1024 171.434667V852.48A171.52 171.52 0 0 1 852.565333 1024H171.52A171.52 171.52 0 0 1 0 852.565333V171.52zM256 512a42.666667 42.666667 0 0 1 41.898667-42.666667h428.202666a42.666667 42.666667 0 0 1 0 85.333334H297.898667A42.666667 42.666667 0 0 1 256 512z m256-256a42.666667 42.666667 0 0 1 42.666667 41.898667v428.202666a42.666667 42.666667 0 0 1-85.333334 0V297.898667A42.666667 42.666667 0 0 1 512 256z" fill="#1296db" p-id="3970"></path></svg>