<?xml version="1.0" standalone="no"?><!DOCTYPE svg PUBLIC "-//W3C//DTD SVG 1.1//EN" "http://www.w3.org/Graphics/SVG/1.1/DTD/svg11.dtd"><svg t="1553095371878" class="icon" style="" viewBox="0 0 1024 1024" version="1.1" xmlns="http://www.w3.org/2000/svg" p-id="8109" xmlns:xlink="http://www.w3.org/1999/xlink" width="200" height="200"><defs><style type="text/css"></style></defs><path d="M226.81 471.299h570.356v81.48H226.81z" fill="#515151" p-id="8110"></path><path d="M845.305 960.176H178.67c-63.297 0-114.819-51.521-114.819-114.819V178.721c0-63.297 51.522-114.819 114.82-114.819h666.635c63.298 0 114.82 51.522 114.82 114.82v666.635c-0.002 63.298-51.523 114.82-114.82 114.82zM178.67 145.381c-18.38 0-33.339 14.959-33.339 33.34v666.635c0 18.38 14.959 33.34 33.34 33.34h666.635c18.38 0 33.34-14.96 33.34-33.34V178.721c0-18.38-14.96-33.339-33.34-33.339H178.67z" fill="#515151" p-id="8111"></path></svg>